{
  "title": "Vikings.S03E10.The.Dead.720p.WEB-DL.DD5.1.H.264-BS[rarbg]",
  "uid": 11847750,
  "size": 1453183148,
  "categoryP": "video",
  "categoryS": "hd___tv_shows",
  "magnet": "?xt=urn:btih:813ea615a1f4c994f572f44537a9bd4b3dc8e395&amp;dn=Vikings.S03E10.The.Dead.720p.WEB-DL.DD5.1.H.264-BS%5Brarbg%5D&amp;tr=udp%3A%2F%2Ftracker.openbittorrent.com%3A80&amp;tr=udp%3A%2F%2Fopen.demonii.com%3A1337&amp;tr=udp%3A%2F%2Ftracker.coppersurfer.tk%3A6969&amp;tr=udp%3A%2F%2Fexodus.desync.com%3A6969",
  "seeders": 77,
  "leechers": 39,
  "uploader": "kanaille",
  "files": 3,
  "time": 1429987528,
  "description": "General\nUnique ID                                : 170526216751129965770714427453206487138 (0x804A279B5D060DCE81129E762B10E062)\nComplete name                            : Vikings.S03E10.The.Dead.720p.WEB-DL.DD5.1.H.264-BS.mkv\nFormat                                   : Matroska\nFormat version                           : Version 4 / Version 2\nFile size                                : 1.35 GiB\nDuration                                 : 44mn 9s\nOverall bit rate                         : 4 388 Kbps\nEncoded date                             : UTC 2015-04-24 07:20:50\nWriting application                      : mkvmerge v7.6.0 ('Garden of Dreams') 64bit built on Feb  8 2015 13:04:34\nWriting library                          : libebml v1.3.1 + libmatroska v1.4.2\nDURATION                                 : 00:43:25.836000000\nNUMBER_OF_FRAMES                         : 330\nNUMBER_OF_BYTES                          : 9736\n_STATISTICS_WRITING_APP                  : mkvmerge v7.6.0 ('Garden of Dreams') 64bit built on Feb  8 2015 13:04:34\n_STATISTICS_WRITING_DATE_UTC             : 2015-04-24 07:20:50\n_STATISTICS_TAGS                         : BPS DURATION NUMBER_OF_FRAMES NUMBER_OF_BYTES\nAttachements                             : small_cover.jpg / cover.jpg / cover_land.jpg / small_cover_land.jpg\n\nVideo\nID                                       : 1\nFormat                                   : AVC\nFormat/Info                              : Advanced Video Codec\nFormat profile                           : &lt;a class=&quot;__cf_email__&quot; href=&quot;/cdn-cgi/l/email-protection&quot; data-cfemail=&quot;652d0c020d2529564b54&quot;&gt;[email&amp;#160;protected]&lt;/a&gt;&lt;script cf-hash='f9e31' type=&quot;text/javascript&quot;&gt;\n/* &lt;![CDATA[ */!function(){try{var t=&quot;currentScript&quot;in document?document.currentScript:function(){for(var t=document.getElementsByTagName(&quot;script&quot;),e=t.length;e--;)if(t[e].getAttribute(&quot;cf-hash&quot;))return t[e]}();if(t&amp;&amp;t.previousSibling){var e,r,n,i,c=t.previousSibling,a=c.getAttribute(&quot;data-cfemail&quot;);if(a){for(e=&quot;&quot;,r=parseInt(a.substr(0,2),16),n=2;a.length-n;n+=2)i=parseInt(a.substr(n,2),16)^r,e+=String.fromCharCode(i);e=document.createTextNode(e),c.parentNode.replaceChild(e,c)}}}catch(u){}}();/* ]]&gt; */&lt;/script&gt;\nFormat settings, CABAC                   : No\nFormat settings, ReFrames                : 2 frames\nCodec ID                                 : V_MPEG4/ISO/AVC\nDuration                                 : 44mn 9s\nBit rate                                 : 3 917 Kbps\nWidth                                    : 1 280 pixels\nHeight                                   : 718 pixels\nDisplay aspect ratio                     : 16:9\nFrame rate mode                          : Constant\nFrame rate                               : 23.976 fps\nColor space                              : YUV\nChroma subsampling                       : 4:2:0\nBit depth                                : 8 bits\nScan type                                : Progressive\nBits/(Pixel*Frame)                       : 0.178\nStream size                              : 1.21 GiB (89%)\nLanguage                                 : English\nDefault                                  : Yes\nForced                                   : No\nColor primaries                          : BT.709\nTransfer characteristics                 : BT.709\nMatrix coefficients                      : BT.709\n\nAudio\nID                                       : 2\nFormat                                   : AC-3\nFormat/Info                              : Audio Coding 3\nMode extension                           : CM (complete main)\nFormat settings, Endianness              : Big\nCodec ID                                 : A_AC3\nDuration                                 : 44mn 9s\nBit rate mode                            : Constant\nBit rate                                 : 384 Kbps\nChannel(s)                               : 6 channels\nChannel positions                        : Front: L C R, Side: L R, LFE\nSampling rate                            : 48.0 KHz\nBit depth                                : 16 bits\nCompression mode                         : Lossy\nStream size                              : 121 MiB (9%)\nLanguage                                 : English\nDefault                                  : Yes\nForced                                   : No\n\nText\nID                                       : 3\nFormat                                   : UTF-8\nCodec ID                                 : S_TEXT/UTF8\nCodec ID/Info                            : UTF-8 Plain Text\nTitle                                    : CC\nLanguage                                 : English\nDefault                                  : No\nForced                                   : No",
  "parsed": {
    "xt": "urn:btih:813ea615a1f4c994f572f44537a9bd4b3dc8e395",
    "dn": "Vikings.S03E10.The.Dead.720p.WEB-DL.DD5.1.H.264-BS[rarbg]",
    "tr": [
      "udp://exodus.desync.com:6969",
      "udp://open.demonii.com:1337",
      "udp://tracker.coppersurfer.tk:6969",
      "udp://tracker.openbittorrent.com:80"
    ],
    "infoHash": "813ea615a1f4c994f572f44537a9bd4b3dc8e395",
    "infoHashBuffer": {
      "type": "Buffer",
      "data": [
        129,
        62,
        166,
        21,
        161,
        244,
        201,
        148,
        245,
        114,
        244,
        69,
        55,
        169,
        189,
        75,
        61,
        200,
        227,
        149
      ]
    },
    "name": "Vikings.S03E10.The.Dead.720p.WEB-DL.DD5.1.H.264-BS[rarbg]",
    "announce": [
      "udp://exodus.desync.com:6969",
      "udp://open.demonii.com:1337",
      "udp://tracker.coppersurfer.tk:6969",
      "udp://tracker.openbittorrent.com:80"
    ],
    "urlList": []
  },
  "previous": 36,
  "peers": 22,
  "last_updated": "2016-12-27T05:19:39.124Z"
}